# xmcd CD database file
#
# Track frame offsets:
#	150
#	6438
#	20170
#	33738
#	44879
#	59623
#	78736
#	91799
#	121040
#
# Disc length: 4440 seconds
#
# Revision: 0
# Processed by: cddbd v1.5PL3 Copyright (c) Steve Scherf et al.
# Submitted via: CDex 1.50beta8
#
DISCID=7b115609
DTITLE=NICOTINE - Punk Rock Xmas
DYEAR=2003
DGENRE=Punk Rock
TTITLE0=MERRY CHRISTMAS Mr．LAWRENCE
TTITLE1=LAST CHRISTMAS
TTITLE2=ALL I WANT FOR CHRISTMAS IS YOU
TTITLE3=I SAW MOMMY KISSING SANTA CLAUS LAST NIGHT
TTITLE4=DO THEY KNOW IT’S CHRISTMAS？
TTITLE5=Punk Rock Xmas MEDLEY
TTITLE6=HAPPY XMAS（WAR IS OVER）
TTITLE7=XMAS TIME WITH YOU
TTITLE8=CDS200.0.4 3.0 build 16a
EXTD=YEAR: 2003
EXTT0=
EXTT1=
EXTT2=
EXTT3=
EXTT4=
EXTT5=
EXTT6=
EXTT7=
EXTT8=
PLAYORDER=
